<?xml version="1.0" standalone="no"?><!DOCTYPE svg PUBLIC "-//W3C//DTD SVG 1.1//EN" "http://www.w3.org/Graphics/SVG/1.1/DTD/svg11.dtd"><svg t="1639554572103" class="icon" viewBox="0 0 1024 1024" version="1.1" xmlns="http://www.w3.org/2000/svg" p-id="3797" width="16" height="16" xmlns:xlink="http://www.w3.org/1999/xlink"><defs><style type="text/css"></style></defs><path d="M511.488 90.5728c-173.312 0-311.7056 138.4448-311.7056 311.7056 0 69.2224 23.0912 127.1296 57.9584 178.944l254.3104 352.2048 254.3104-352.2048c34.8672-51.7632 57.9584-115.3536 57.9584-178.944-1.1264-173.312-139.52-311.7056-312.832-311.7056z" fill="#D81E06" p-id="3798"></path><path d="M669.44 590.2336h-50.2272L610.304 565.248c-7.8848 7.1168-20.224 13.1072-36.9664 17.8176-16.7424 4.7616-34.9696 7.1168-54.6816 7.1168-41.3696 0-78.336-11.5712-110.848-34.7648-32.512-23.1936-48.7424-60.3136-48.7424-111.4624 0-55.8592 14.7968-97.4848 44.3392-124.8256 29.5424-27.3408 69.9392-41.0112 121.1904-41.0112 45.312 0 80.7936 10.0864 106.3936 30.3104s38.4 46.3872 38.4 78.4384h-65.024c0-24.9856-6.912-43.6736-20.6848-56.1664-13.7728-12.4928-33.4848-18.7392-59.136-18.7392-31.5392 0-55.1936 9.8304-70.912 29.44-15.7696 19.6096-23.6544 52.5824-23.6544 98.9696 0 43.9808 9.8304 74.2912 29.5424 90.9312s42.3424 24.9856 67.9936 24.9856c25.6 0 45.824-5.632 60.5696-16.9472 14.7968-11.3152 22.1696-28.8256 22.1696-52.5824v-19.6096h-91.648v-33.8944h150.7328v156.9792z" fill="#F2F2F2" p-id="3799"></path></svg>