<?xml version="1.0" standalone="no"?><!DOCTYPE svg PUBLIC "-//W3C//DTD SVG 1.1//EN" "http://www.w3.org/Graphics/SVG/1.1/DTD/svg11.dtd"><svg t="1637057471772" class="icon" viewBox="0 0 1024 1024" version="1.1" xmlns="http://www.w3.org/2000/svg" p-id="2494" width="16" height="16" xmlns:xlink="http://www.w3.org/1999/xlink"><defs><style type="text/css"></style></defs><path d="M904 456l-224 0c-30.912 0-56-25.088-56-56L624 344c0-30.912 25.088-56 56-56l224 0C934.912 288 960 313.088 960 344L960 400C960 430.912 934.912 456 904 456zM736 120C736 103.744 747.328 64 764.288 64l55.424 0c16.96 0 28.16 39.744 28.288 56l0 112L736 232 736 120zM456 120C456 103.744 467.328 64 484.288 64l55.424 0c16.96 0 28.16 39.744 28.288 56l0 448-112 0L456 120zM680 680 680 736c0 30.912-25.088 56-56 56l-224 0c-30.912 0-56-25.088-56-56l0-56c0-30.912 25.088-56 56-56l224 0C654.912 624 680 649.088 680 680zM344 568l-224 0C89.088 568 64 542.912 64 512L64 456C64 425.088 89.088 400 120 400l224 0c30.912 0 56 25.088 56 56L400 512C400 542.912 374.912 568 344 568zM176 120C176 103.744 187.328 64 204.288 64l55.424 0C276.672 64 287.872 103.744 288 120l0 224L176 344 176 120zM288 904C287.872 920.256 276.672 960 259.712 960L204.288 960c-16.96 0-28.288-39.744-28.288-56L176 624 288 624 288 904zM568 904C567.872 920.256 556.672 960 539.712 960L484.288 960c-16.96 0-28.288-39.744-28.288-56L456 848l112 0L568 904zM848 904C847.872 920.256 836.672 960 819.712 960l-55.424 0c-16.96 0-28.288-39.744-28.288-56L736 512l112 0L848 904z" p-id="2495"></path></svg>